<svg xmlns="http://www.w3.org/2000/svg" version="1.1" xmlns:xlink="http://www.w3.org/1999/xlink" xmlns:svgjs="http://svgjs.com/svgjs" width="1440" height="560" preserveAspectRatio="none" viewBox="0 0 1440 560"><g mask="url(&quot;#SvgjsMask1005&quot;)" fill="none"><path d="M1554.28 496.37C1390.89 492.34 1206.1 278.36 944.31 261.17 682.52 243.98 740.68 2.35 639.32-17.55" stroke="rgba(82, 0, 82, 1)" stroke-width="2"></path><path d="M1656.63 264.64C1471.24 266.4 1309.77 463.25 941.4 460.64 573.02 458.03 449.59-58.46 226.16-88.96" stroke="rgba(82, 0, 82, 1)" stroke-width="2"></path><path d="M1504.63 523.8C1363.06 519.11 1276.93 315.56 984.18 299.8 691.43 284.04 615.48-4.24 463.73-16.3" stroke="rgba(82, 0, 82, 1)" stroke-width="2"></path><path d="M1715.12 73.25C1605.38 83.57 1535.32 315.16 1345.79 314.05 1156.27 312.94 1109.37-59.43 976.47-97.46" stroke="rgba(82, 0, 82, 1)" stroke-width="2"></path><path d="M1486.03 44.35C1365.15 45.87 1256.8 184.65 1023.18 184.35 789.57 184.05 693.67-73.86 560.34-83.26" stroke="rgba(82, 0, 82, 1)" stroke-width="2"></path></g><defs><mask id="SvgjsMask1005"><rect width="1440" height="560" fill="#ffffff"></rect></mask></defs></svg>